<?xml version="1.0" standalone="no"?>
<!DOCTYPE svg PUBLIC "-//W3C//DTD SVG 20010904//EN"
 "http://www.w3.org/TR/2001/REC-SVG-20010904/DTD/svg10.dtd">
<svg version="1.0" xmlns="http://www.w3.org/2000/svg"
 width="1000.000000pt" height="1000.000000pt" viewBox="0 0 1000.000000 1000.000000"
 preserveAspectRatio="xMidYMid meet">
<metadata>
Created by potrace 1.11, written by Peter Selinger 2001-2013
</metadata>
<g transform="translate(0.000000,1000.000000) scale(0.100000,-0.100000)"
fill="#000000" stroke="none">
<path d="M4075 9169 c-868 -33 -1690 -344 -2400 -908 -160 -126 -495 -463
-629 -631 -118 -148 -282 -389 -371 -544 -531 -930 -686 -2043 -429 -3096 228
-936 789 -1778 1569 -2358 657 -488 1456 -771 2263 -801 587 -21 1113 64 1642
266 160 61 401 174 543 254 214 121 496 320 677 477 96 84 297 280 361 354
l49 56 -1545 1377 c-850 758 -1545 1381 -1545 1385 0 4 695 627 1545 1385
l1545 1377 -49 57 c-72 83 -302 305 -411 395 -544 455 -1202 766 -1882 891
-203 37 -364 55 -538 61 -85 2 -171 6 -190 7 -19 1 -111 0 -205 -4z m-268
-1648 c230 -80 393 -306 393 -546 0 -266 -201 -516 -457 -570 -93 -20 -166
-19 -258 5 -361 92 -540 492 -372 830 44 90 161 206 248 249 95 46 151 59 264
60 85 1 112 -3 182 -28z"/>
<path d="M7520 6467 l0 -674 -582 -197 c-321 -108 -848 -286 -1173 -395 -435
-147 -585 -201 -570 -207 11 -5 538 -177 1170 -384 l1150 -375 3 -659 c1 -443
5 -657 12 -654 16 5 2340 2069 2340 2078 0 8 -2326 2133 -2341 2138 -5 2 -9
-269 -9 -671z"/>
</g>
</svg>
